# xmcd CD database file generated by LOLA_Freedb v0.9beta0
# 
# Track frame offsets:
# 150
# 19421
# 31969
# 44986
# 57430
# 71347
# 87844
# 104706
# 118064
# 133190
# 147721
# 
# Disc length: 2113 seconds
# 
# Revision: 0 
# Processed by: cddbd v1.5.2PL0 Copyright (c) Steve Scherf et al.
# Submitted via: LOLA_Freedb v0.9beta0
# 
DISCID=b0083f0b
DTITLE=Ike and Tina Turner - Let Me Touch Your Mind and Bonus
DYEAR=1974
DGENRE=
TTITLE0=Ike and Tina Turner - Let Me Touch Your mind
TTITLE1=Ike and Tina Turner - Annie had A Baby
TTITLE2=Ike and Tina Turner - Don`t Believe Her
TTITLE3=Ike and Tina Turner - I Had A Notion
TTITLE4=Ike and Tina Turner - Popcorn
TTITLE5=Ike and Tina Turner - Early In The morning
TTITLE6=Ike and Tina Turner - Help Him
TTITLE7=Ike and Tina Turner - Up On The Roof
TTITLE8=Ike and Tina Turner - Born Free
TTITLE9=Ike and Tina Turner - Heaven Help Us All
TTITLE10=Ike and Tina Turner - You Took A Trip
EXTD=
EXTT0=
EXTT1=
EXTT2=
EXTT3=
EXTT4=
EXTT5=
EXTT6=
EXTT7=
EXTT8=
EXTT9=
EXTT10=
PLAYORDER=
